<svg width="16" height="11" viewBox="0 0 16 11" fill="none" xmlns="http://www.w3.org/2000/svg">
<path fill-rule="evenodd" clip-rule="evenodd" d="M8.00008 0.666748C4.66675 0.666748 1.82008 2.74008 0.666748 5.66675C1.82008 8.59341 4.66675 10.6667 8.00008 10.6667C11.3334 10.6667 14.1801 8.59341 15.3334 5.66675C14.1801 2.74008 11.3334 0.666748 8.00008 0.666748ZM8.00008 9.00008C6.16008 9.00008 4.66675 7.50675 4.66675 5.66675C4.66675 3.82675 6.16008 2.33341 8.00008 2.33341C9.84008 2.33341 11.3334 3.82675 11.3334 5.66675C11.3334 7.50675 9.84008 9.00008 8.00008 9.00008ZM6.00008 5.66675C6.00008 4.56008 6.89341 3.66675 8.00008 3.66675C9.10675 3.66675 10.0001 4.56008 10.0001 5.66675C10.0001 6.77341 9.10675 7.66675 8.00008 7.66675C6.89341 7.66675 6.00008 6.77341 6.00008 5.66675Z" fill="#9C9C9C"/>
</svg>
